<?xml version="1.0" encoding="utf-8"?>
<!-- Generator: Adobe Illustrator 22.1.0, SVG Export Plug-In . SVG Version: 6.00 Build 0)  -->
<svg version="1.1" id="Layer_1" xmlns="http://www.w3.org/2000/svg" xmlns:xlink="http://www.w3.org/1999/xlink" x="0px" y="0px"
	 viewBox="0 0 200 273" style="enable-background:new 0 0 200 273;" xml:space="preserve">
<style type="text/css">
	.st0{fill:#FFFFFF;}
	.st1{clip-path:url(#SVGID_3_);stroke:#FFFFFF;}
	.st2{clip-path:url(#SVGID_5_);}
	.st3{clip-path:url(#SVGID_7_);fill:none;stroke:#4E85C0;stroke-width:0.5;stroke-linecap:round;stroke-linejoin:round;}
	.st4{fill:#595959;}
	.st5{fill:url(#SVGID_8_);}
	.st6{fill:none;stroke:#595959;stroke-width:0.5;stroke-miterlimit:1;}
	.st7{fill:none;stroke:#FFD756;}
	.st8{fill:none;stroke:#FFAC56;}
	.st9{fill:url(#SVGID_9_);}
	.st10{fill:none;stroke:#FFFFFF;stroke-width:0.1;stroke-linecap:round;stroke-linejoin:round;}
	.st11{fill:#4371B3;}
	.st12{fill:#A32624;stroke:#BA7A79;stroke-width:0.25;}
	.st13{fill:none;stroke:#FFD756;stroke-width:1.44;stroke-linecap:round;stroke-linejoin:round;}
	.st14{fill:none;stroke:#4E85C0;stroke-width:0.75;stroke-linecap:round;stroke-linejoin:round;}
	.st15{fill:none;stroke:#A0A1A2;stroke-width:0.75;stroke-linecap:round;stroke-linejoin:round;stroke-miterlimit:1;}
	.st16{fill:url(#SVGID_10_);}
	.st17{fill:url(#SVGID_11_);}
	.st18{fill:url(#SVGID_12_);}
	.st19{fill:#4E85C0;stroke:#000000;stroke-width:0.25;}
	.st20{fill:url(#SVGID_13_);stroke:#000000;stroke-width:0.25;}
	.st21{fill:#DCD8E8;}
	.st22{fill:#BCCCDB;}
	.st23{fill:#BCCCDB;stroke:#000000;stroke-width:0.25;}
	.st24{fill:url(#SVGID_14_);}
	.st25{fill:url(#SVGID_15_);}
	.st26{fill:url(#SVGID_16_);}
	.st27{fill:none;stroke:#4E85C0;stroke-width:0.25;}
	.st28{fill:none;stroke:#BCCCDB;stroke-width:0.5;}
	.st29{fill:none;stroke:#4371B3;stroke-linecap:round;stroke-linejoin:round;}
	.st30{fill:#4371B3;stroke:#4371B3;stroke-width:0.5;stroke-linecap:round;stroke-linejoin:round;}
	.st31{fill:#D9D9D9;}
	.st32{fill:#FFFFFF;stroke:#4E85C0;stroke-width:0.25;}
	.st33{fill:#4E85C0;}
	.st34{fill:none;stroke:#4E85C0;stroke-width:0.25;stroke-linecap:round;stroke-linejoin:round;}
	.st35{fill:url(#SVGID_17_);stroke:#FFFFFF;stroke-width:0.75;stroke-miterlimit:1;}
	.st36{fill:url(#SVGID_18_);stroke:#1F1E21;stroke-width:0.25;stroke-miterlimit:1;}
	.st37{fill:#FAE6E7;}
	.st38{fill:#FFF2F3;}
	.st39{fill:url(#SVGID_19_);stroke:#1F1E21;stroke-width:0.25;stroke-miterlimit:1;}
	.st40{fill:url(#SVGID_20_);stroke:#FFFFFF;stroke-width:0.75;stroke-linecap:round;stroke-linejoin:round;stroke-miterlimit:1;}
	.st41{fill:#684021;stroke:#000000;stroke-width:0.5;}
	.st42{fill:url(#SVGID_21_);stroke:#1F1E21;stroke-width:0.5;stroke-miterlimit:1;}
	.st43{fill:url(#SVGID_22_);}
	.st44{fill:#BA7A79;}
	.st45{fill:#E89897;}
	.st46{fill:url(#SVGID_23_);}
	.st47{fill:#E6B1B3;}
	.st48{fill:#63482E;stroke:#000000;stroke-width:0.25;}
	.st49{clip-path:url(#SVGID_25_);fill:url(#SVGID_26_);}
	.st50{clip-path:url(#SVGID_25_);}
	.st51{clip-path:url(#SVGID_25_);fill:#FFFFFF;}
	.st52{fill:none;stroke:#000000;stroke-width:0.5;stroke-linecap:round;stroke-linejoin:round;}
	.st53{fill:url(#SVGID_27_);stroke:#E89897;stroke-width:0.25;}
	.st54{fill:url(#SVGID_28_);}
	.st55{fill:#E89897;stroke:#BA7A79;stroke-width:0.25;stroke-linecap:round;stroke-linejoin:round;}
	.st56{fill:none;stroke:#3D260F;stroke-width:0.5;stroke-linejoin:round;}
	.st57{display:none;}
	.st58{display:inline;fill:none;stroke:#000000;stroke-width:0.75;}
	.st59{display:inline;}
	.st60{display:inline;fill:#DCD8E8;}
	.st61{display:inline;fill:#FFFFFF;}
	.st62{display:inline;fill:none;stroke:#FFFFFF;stroke-width:0.25;stroke-linecap:round;stroke-linejoin:round;}
	.st63{display:inline;fill:none;stroke:#4E85C0;stroke-width:0.25;stroke-linecap:round;stroke-linejoin:round;}
</style>
<g>
	<g id="Layer_12">
		<g>
			<g>
				
					<ellipse id="SVGID_1_" transform="matrix(0.9423 -0.3348 0.3348 0.9423 -41.5753 40.1733)" class="st0" cx="95.7" cy="140.7" rx="86.5" ry="117.8"/>
			</g>
			<g>
				<g>
					<g>
						<defs>
							<path id="SVGID_2_" d="M77.2,26.4c49-0.1,96.7,51.2,106.5,114.6s-21.9,115.3-71,114.9c-48-0.4-95.2-52-106.5-114.6
								C-5.3,78,28.2,26.5,77.2,26.4z"/>
						</defs>
						<clipPath id="SVGID_3_">
							<use xlink:href="#SVGID_2_"  style="overflow:visible;"/>
						</clipPath>
						<path class="st1" d="M59.7,170.1c0,0-27.3,21.2-44.5,31.6c-17.7,10.7,41.7,61.4,72.1,57c30.4-4.4,42.6-9.8,42.6-9.8
							s4.9-20.4,3.2-24.8c-1.7-4.4,6.7-41.3,6.7-41.3"/>
					</g>
				</g>
			</g>
			<g>
				<g>
					<g>
						<defs>
							
								<ellipse id="SVGID_4_" transform="matrix(0.9423 -0.3348 0.3348 0.9423 -41.5753 40.1733)" cx="95.7" cy="140.7" rx="86.5" ry="117.8"/>
						</defs>
						<clipPath id="SVGID_5_">
							<use xlink:href="#SVGID_4_"  style="overflow:visible;"/>
						</clipPath>
						<path class="st2" d="M20.9,76.9l3.7-3.5c0,0,1.8-1.7,6.2-1.7c0.2,0,2.7-2.3,3.4-1.7c0.1,0.1,0.8-2.4,0.8-2.4s0.5-3.2,5.2-0.8
							c0.2,0.1,2.8-1.2,2.8-1.2s0.9,0.2,1.9-1.8c0.3-0.6,3.1-1.1,3.1-1.1s2.1-0.8,2.1,0.8c0,0.1,1.2-0.8,1.2-0.8s1.5,0.1,1.8,1
							c0.3,0.9,0.3-2.2,1.6-2.7c1.3-0.6,3-0.2,3-0.2s1.2-0.5,2,0.3c0.8,0.8,1.2-1,2.8-0.7c1.6,0.4,11.5-10,21.5-10.5l5.7,0.8
							c0,0,9.1,3.9,10.6,4.2c1.5,0.3,3.3,1.8,3.3,1.8l1,3.8l-3.4,9.7l-9,8.3l-10.2,5l-8.1,3.4l-9.6,5.8l-2.8,17.7l-1.3,8l0.6,6.7
							l1.4,19.7l-1.2,6.1l-0.5,7.7l-15.9,8.8c0,0-40,4.3-43.7-1.3c-3.7-5.6-25.5-5.4-19.9-8.1c5.6-2.7,27.9-19.7,30.8-23.3
							c2.9-3.7,16-4.7,20-9.8c5.4-6.8,1-8.7,1.5-12.7c0.4-3.4-4-6.5-6.7-7.9c-2.7-1.5-3-6.7-3-6.7s-5.2-6.5-4.9-11.3
							C19,81.3,20.9,76.9,20.9,76.9z"/>
					</g>
				</g>
			</g>
			<g>
				<g>
					<g>
						<defs>
							<path id="SVGID_6_" d="M78,25.9c49-0.1,96.7,51.2,106.5,114.6s-22,115-71,114.9c-48.6-0.1-96.1-51.5-106.5-114.6
								C-3.5,77.5,28.9,26,78,25.9z"/>
						</defs>
						<clipPath id="SVGID_7_">
							<use xlink:href="#SVGID_6_"  style="overflow:visible;"/>
						</clipPath>
						<path class="st3" d="M-15.3,160c0,0-7.3-0.5-3.7-2.2c5.6-2.6,27.6-18.9,30.8-23.3c0,0,1.7-1.9,7.4-2.8"/>
					</g>
				</g>
			</g>
			<g>
				<path d="M115.4,257c-49.9,0.1-98.5-52-108.4-116.2S29.5,24.4,79.4,24.3c49.9-0.1,98.5,52,108.4,116.2S165.2,256.9,115.4,257z
					 M76.6,27.5C28.5,27.6-2.7,78.5,6.9,140.8s56.6,113.1,104.6,113c48-0.1,79.3-50.9,69.6-113.3S124.6,27.4,76.6,27.5z"/>
			</g>
		</g>
	</g>
	<g id="Jacket">
		<g>
			<path d="M134.6,269.3c0.2-6.4,2.9-17,3.7-25.2c1-10,7.5-18.4,11.3-24.2c3.8-5.8,3.6-11.7,4-10.8c0.4,0.9,17.7,4.2,20.1,4.4
				c2.4,0.2-1.6,2.4,8.4-3.3c10.1-5.7,14.3-24.9,13.9-26c-0.4-1.1,1.8-13,1.5-15.4c-0.4-2.4-2.6-4-2.4-4c2.2,0,2.7-1.5,2.7-1.5
				s-2.2-8.1-1.6-9.3c0.5-1.3-2.2-5.1-3.1-5.5c-0.9-0.4-0.7-2.4,0.9-3.1c1.6-0.7-0.4-1.6-1.6-3.3c-1.3-1.6-1.5-3.5-0.9-5.1
				c0.6-1.6-3.1-7.3-1.5-9.7c1.6-2.4-1-13.8-1.5-14.6c-0.5-0.8-2.6-1-2.9-2.1c-0.2-1.1-10-6.9-10-6.9l-9.7-4.7c0,0-1.8,0.2-3.3-1.5
				C160,94.7,156,94,156,94l-7.4-4.8c-0.5-3-2.6-5.1-2.6-5.1l-10.7,7.1l-0.5,10l0.7,16.8l3.2,24.4l1.3,4.3l1.3,6.4l0.3,4.1l-0.4,4.4
				l-1.7,4.2l-1.7,3.1l-2.2,1.2l-2.2,1.7l-2.3,5.4l-0.8,3.3l-0.4,5.5l0.6,3.2c0,0-0.1,0.6,1.1,3c1.2,2.5,0.1,3.5,0.1,3.5
				s-0.3-3.2-0.1,10c0.2,13.2-0.7,11.5-2.1,14.8c-1.4,3.3,0.4,10.9,0.4,10.9s2,2.7-0.4,8.5c-2.4,5.9,2.6,13.2,2.1,22
				c-0.1,2.1-1.4,5.4-0.3,7.5C131.6,269.3,134.4,275.7,134.6,269.3z"/>
		</g>
	</g>
	<g id="Jacket_Details">
		<path class="st4" d="M34.2,114.7c0,0,7.3,12.1-17,17.3c-0.4,0.1,30,1,18.7-26.5C34.5,102.1,34.2,114.7,34.2,114.7z"/>
		
			<linearGradient id="SVGID_8_" gradientUnits="userSpaceOnUse" x1="194.0726" y1="254.8505" x2="275.8743" y2="254.8505" gradientTransform="matrix(0.6717 0 0 -0.6717 -89.8226 250.9316)">
			<stop  offset="4.800000e-03" style="stop-color:#595959"/>
			<stop  offset="0.2393" style="stop-color:#414141"/>
			<stop  offset="0.7465" style="stop-color:#121212"/>
			<stop  offset="1" style="stop-color:#000000"/>
		</linearGradient>
		<path class="st5" d="M40.7,88.8c0,0,0.6-1.9,3.5-2.1c2.9-0.2,9.5,1.3,16.3-0.7c6.7-2,25.3-11.4,25.3-11.4l9.6-4l-11.4,5.2
			c0,0-14.1,8.6-18,9.9c-3.4,1.1-2.2,3-22.3,1.8C43.5,87.6,40.7,88.8,40.7,88.8z"/>
		<path class="st6" d="M37.7,132.6c0,0,9.8,9.3,11.5,7.2c1.7-2.1,3.1-8.6,3.1-8.6"/>
		<path class="st4" d="M42.9,113.4c0,0,7.9,1.7,8.7,3.8c0.1,0.2-0.7,2.7-0.7,2.7s-7.2-3.8-8.9-3.6C41.8,116.3,42.9,113.4,42.9,113.4
			z"/>
		<g>
			<g>
				<line class="st7" x1="52" y1="111.1" x2="55.5" y2="104.4"/>
				<line class="st8" x1="51.5" y1="110.8" x2="55" y2="104.2"/>
				
					<linearGradient id="SVGID_9_" gradientUnits="userSpaceOnUse" x1="216.2472" y1="219.7267" x2="217.4499" y2="219.1417" gradientTransform="matrix(0.6717 0 0 -0.6717 -89.8226 250.9316)">
					<stop  offset="4.800000e-03" style="stop-color:#DEAF5C"/>
					<stop  offset="0.1206" style="stop-color:#E2B473"/>
					<stop  offset="0.3816" style="stop-color:#E9BEA2"/>
					<stop  offset="0.5121" style="stop-color:#ECC2B4"/>
					<stop  offset="1" style="stop-color:#DEAF5C"/>
				</linearGradient>
				<polygon class="st9" points="56.2,102.6 55.8,104.6 54.6,104 55.9,102.5 				"/>
				<path class="st10" d="M56.2,102.6c0,0,0.1-0.5,0-0.5"/>
			</g>
			<path class="st6" d="M41.7,107.7c0,0,0.2,0.5,0.9,0.9c0.7,0.3,11.3,2.2,12,4.5"/>
			<path class="st11" d="M48.4,109.9c0.9-3.4,1.1-6.3,0.7-6.4c-0.5-0.1-1.6,2.5-2.5,6l-1.1,4c0,0,0.2,0.1,0.4-0.1
				c0.3-0.4,0.5-1.5,1.3-3.7L48.4,109.9z"/>
			<g>
				<path class="st12" d="M48.2,110.1c1.2-4.8,2.8-8.4,3.7-8.2c0.9,0.2,0.7,4.3-0.4,9"/>
				<path class="st13" d="M50.6,106.2c0,0-1.8,7.2-1.8,7.4"/>
			</g>
		</g>
		<path class="st14" d="M22.9,95.9c0,0-4.5-5.7-4.2-10.5c0.3-4.8,2.2-8.5,2.2-8.5l3.7-3.5c0,0,1.8-1.7,6.2-1.7
			c0.2,0,2.7-2.3,3.4-1.7c0.1,0.1,0.8-2.4,0.8-2.4s0.5-3.2,5.2-0.8c0.2,0.1,2.8-1.2,2.8-1.2s0.9,0.2,1.9-1.8
			c0.3-0.6,3.1-1.1,3.1-1.1s2.1-0.8,2.1,0.8c0,0.1,1.2-0.8,1.2-0.8s1.5,0.1,1.8,1c0.3,0.9,0.3-2.2,1.6-2.7c1.3-0.6,3-0.2,3-0.2
			s1.2-0.5,2,0.3c0.8,0.8,1.2-1,2.8-0.7c1.6,0.4,11.5-10,21.5-10.5l5.7,0.8"/>
		<path class="st15" d="M95.4,69.6l-19.9-2.8l-1.7,6.3l-6.6-4.1c0,0-2.1-2-3,1.2c-1.3,4.6-14.2,14.4-16.3,15"/>
		
			<linearGradient id="SVGID_10_" gradientUnits="userSpaceOnUse" x1="340.8133" y1="178.4611" x2="408.5995" y2="174.9064" gradientTransform="matrix(0.6717 0 0 -0.6717 -89.8226 250.9316)">
			<stop  offset="4.800000e-03" style="stop-color:#595959"/>
			<stop  offset="0.2393" style="stop-color:#414141"/>
			<stop  offset="0.7465" style="stop-color:#121212"/>
			<stop  offset="1" style="stop-color:#000000"/>
		</linearGradient>
		<path class="st16" d="M158.4,158c0,0,4.1-11.1,6.2-17.3c2.1-6.2-1.7-5.8-1.7-5.8l-6-6.3c0,0,0.7-0.7,3.1-3.8
			c2.4-3.1,0.5-5.6,0.5-5.6L150,99.7c0,0,4.9,26.4,2.9,24.6c-2-1.9-7.8-8.9-9-9c-1.2-0.1,8.1,8.6,8.1,8.6s7,31,3.6,34.1
			c-3.4,3-9.8-31.9-9.8-31.9s-1.6-5.6-3.3-4.2c-1.7,1.3,4.4,31.5,4.5,32.9c0.1,1.3,4.9,9.5,6.4,9.1C154.8,163.3,158.4,158,158.4,158
			L158.4,158z"/>
		
			<linearGradient id="SVGID_11_" gradientUnits="userSpaceOnUse" x1="393.5017" y1="156.2488" x2="403.6931" y2="142.745" gradientTransform="matrix(0.6717 0 0 -0.6717 -89.8226 250.9316)">
			<stop  offset="4.800000e-03" style="stop-color:#595959"/>
			<stop  offset="0.2393" style="stop-color:#414141"/>
			<stop  offset="0.7465" style="stop-color:#121212"/>
			<stop  offset="1" style="stop-color:#000000"/>
		</linearGradient>
		<path class="st17" d="M182.9,129.5c0,0-3.1,20.4-13.4,30.5c-10.3,10.1,8.8-6.5,10.7-11.3S182.9,129.5,182.9,129.5z"/>
		
			<linearGradient id="SVGID_12_" gradientUnits="userSpaceOnUse" x1="397.2313" y1="131.7061" x2="463.7651" y2="130.3899" gradientTransform="matrix(0.6717 0 0 -0.6717 -89.8226 250.9316)">
			<stop  offset="4.800000e-03" style="stop-color:#595959"/>
			<stop  offset="0.2393" style="stop-color:#414141"/>
			<stop  offset="0.7465" style="stop-color:#121212"/>
			<stop  offset="1" style="stop-color:#000000"/>
		</linearGradient>
		<path class="st18" d="M192.2,145.3c0,0-15.9,17.5-14.9,18.2c1,0.8,9.9-4.4,11-4.6c1.1-0.2-3,1.9-2,2.1c1,0.1,10.1,0.5,9.8,1.6
			c-0.3,1.1-8.5,0.1-9.8,1.7c-1.3,1.6-9.8,5-9.6,5.8c0.2,0.9,8.3-0.6,9.6,0.6c1.3,1.3,0.6,2.2-1.5,1.7c-0.1,0-0.1,0-0.2,0
			c-2.1-0.3-4.6,1.2-2.6,1.4c1.2,0.1,5.2,1.5,8.3,3c2.3,1.1,4.1,2.3,4.1,3.2c0,0.1-22.6-9.1-23.8-9.1c-1.2,0-1.7-0.3-1.9,0.2
			c0,0-0.3-0.6,2-0.4c2.3,0.3,8,2.9,8,2.9l11.3,4.5c0,0,1.9-0.5-0.2-1.4c-2.2-1-6.1-2.5-7.1-2.6c-1-0.1-3.5-0.4-3.2-0.8
			c0.3-0.3,2.4-0.9,3-1s1.3-0.3,1.8-0.2c0.5,0.1,1.4-1.8-0.3-1.8c-1.6-0.1-4.8-0.1-5.2-0.7s-0.8-1.2,0.8-2.1
			c1.6-0.8,4.9-2.6,6.7-2.9c1.8-0.3,6.8-1.3,7.6-2.1c0.8-0.8-5.2-1.4-6.4-1.9c-1.2-0.5,1.1-2,1.1-2s-8.7,3.7-9.3,3.4
			c-0.5-0.3,6.9-10.3,6.9-10.3L192.2,145.3z"/>
	</g>
	<g id="Shirt">
		<path class="st19" d="M110.2,156.9l14.8,12.7l6.7,14l-0.1,3.1c0,0,0.1,1.6-1.1,2.3c-0.9,0.6-2.3,2.1-2.3,2.1l-13.6-3.1l-6-2.8
			l0.1-4.2l7.6,2.3l8.1,0.5l-15-20.4c0,0-6-4.1-4.6-6C106.2,155.6,110.2,156.9,110.2,156.9z"/>
		<polygon class="st19" points="59,133.9 60.3,159.3 65,179.9 67.1,187.4 75.2,194.8 64.5,155.3 		"/>
		
			<radialGradient id="SVGID_13_" cx="292.1385" cy="183.9846" r="125.0833" gradientTransform="matrix(0.6717 0 0 -0.6717 -89.4202 250.5488)" gradientUnits="userSpaceOnUse">
			<stop  offset="0" style="stop-color:#FFFFFF"/>
			<stop  offset="0.1959" style="stop-color:#FBFDFE"/>
			<stop  offset="0.3922" style="stop-color:#EFF6FC"/>
			<stop  offset="0.5882" style="stop-color:#DBEAF8"/>
			<stop  offset="0.6425" style="stop-color:#D4E6F7"/>
			<stop  offset="0.9543" style="stop-color:#BFD0DF"/>
			<stop  offset="1" style="stop-color:#BCCCDB"/>
		</radialGradient>
		<path class="st20" d="M102.3,64.7l-4.1,7c0,0-3,0.9-2.3,2.2c0.3,0.6-14.2,6.7-13.9,6.6l-2.1,0.8c0,0-1,0.2-2.6,1.5
			c-0.8,0.6-4.5,2.4-4.5,2.4l-6.2,4.2l-3.6,2.2c0,0-0.7,8-1.6,9.6l-2,15c0,0-1.7,3.1-0.1,15.4c1.6,12.3,3.4,27.6,6,39.4
			c2.6,11.8,2.9,11.7,2.9,11.7s6.1,13,9.8,14.6c3.6,1.6,7.2,3.2,7.2,3.2s7.9,2.4,9.9,2.5c2.1,0.1,2.9,0.8,3.5,0.6
			c0.6-0.1,0.5-0.8,1.1-0.7c0.6,0.1,9.4-0.1,14.8-3.8c5.3-3.8,4.8-3.5,4.8-3.5s2.6,0,2.8-0.3c0.2-0.3,2-1.2,2.5-1.3
			c0.5-0.1,3.1-1.8,4.8-4c0,0-5.1,1.2-12.5-3.8c-0.8-0.5,5.5,2.3,6.5,2.5c3.1,0.7,7.8,0.5,8-0.4c0.2-0.9,0.1-1.5,0.1-1.5
			s-2.4-3.2-3.1-5.4c-0.8-2.2-1.9-3.8-2.8-3.9c-0.8-0.1-6-7.8-6.2-8c-0.3-0.1-5.1-5.9-5.1-5.9s6.2,6.2,6.9,7.6
			c0.6,1.4,4.9,5.8,4.9,5.8l1.9,1.7c0,0,1,2.8,1.4,3.3c0.4,0.5,0.9,3.8,2.5,3.8c0.1,0,0.2-5.1,0.2-5.1l3.4-7.4c0,0,3.2-1,4.9-2.9
			c1.7-1.9,4.1-7.5,4-9.2c-0.1-1.7,0.4-4.5,1-5.1c0.6-0.6-0.1-8.4-0.1-8.4s-5.2-25.6-5.4-28.5c-0.2-3-1.6-22.6-1.6-22.6l-15.1-2.8
			c0,0-2.2-0.8-4.7,0.3c-2.5,1.2-7.6,3.5-9.4,2.6c-1.7-0.8-2.6,0.4-3.3,0.5s0.5-2.1,0.5-2.1s0-2.4-3-4c-0.1-0.1-1.5-7.3-1.5-7.3
			s-0.9-6.2-0.3-9.7C101.6,70.6,102.3,64.7,102.3,64.7z"/>
		<path class="st21" d="M122,194.9c0,0-5.7,0-7.8,1.3c-2.1,1.3,2.3-1.9,2.3-1.9s-4.9-1.9-10.6-6.4c-5.7-4.5-11.1-10.2-11.1-10.2
			s0.3-2.8,1.7-0.7c1.5,2.1,4.6,5.8,4.6,5.8l6.6,5.7c0,0,6.5,4.6,8.5,4.9C118.1,193.9,122,194.9,122,194.9z"/>
		<polygon class="st22" points="98,72 93.4,80.8 90.9,85.5 93.3,83.7 95.2,81.1 100.1,68.5 		"/>
		<path class="st23" d="M58.9,138.4c0,0,1.2,6.6,1.1,7s1.5,10.4,1.5,10.4l1.2,11.3l4.9,17.2v2.1l-0.5,1l-4.5-7.7
			c0,0-1.5-8.8-2.9-9.6c-1.5-0.7-0.1-2.9-0.1-2.9s-1.2-8-1.4-13.4C58.1,148.3,58.9,138.4,58.9,138.4z"/>
		
			<linearGradient id="SVGID_14_" gradientUnits="userSpaceOnUse" x1="269.1953" y1="250.1398" x2="277.6667" y2="242.3207" gradientTransform="matrix(0.6717 0 0 -0.6717 -89.8226 250.9316)">
			<stop  offset="0" style="stop-color:#D4E6F7"/>
			<stop  offset="1" style="stop-color:#FFFFFF"/>
		</linearGradient>
		<path class="st24" d="M100.1,68.6c0,0-2.9,12.7-2.8,13.9s2,7.3,0.5,7.7c-1.4,0.4-6.8,3.8-6.8,3.8l-7.2,5c0,0,6.2-9.6,6.6-12.3
			c0.3-2.6,3.7-4.2,3.7-4.2C93.5,84,100.1,68.3,100.1,68.6z"/>
		
			<linearGradient id="SVGID_15_" gradientUnits="userSpaceOnUse" x1="275.2404" y1="262.9526" x2="247.3878" y2="207.4087" gradientTransform="matrix(0.6717 0 0 -0.6717 -89.8226 250.9316)">
			<stop  offset="0" style="stop-color:#BCCCDB"/>
			<stop  offset="0.5" style="stop-color:#D4E6F7"/>
		</linearGradient>
		<path class="st25" d="M95.1,75l-13,23.3c0,0-6.3,11.3-6.2,11.6s0.8,4,2.6,0.2c1.9-3.8,7.9-17.1,7.9-17.1L95.1,75z"/>
		
			<linearGradient id="SVGID_16_" gradientUnits="userSpaceOnUse" x1="253.6792" y1="250.3519" x2="228.1208" y2="199.3837" gradientTransform="matrix(0.6717 0 0 -0.6717 -89.8226 250.9316)">
			<stop  offset="0" style="stop-color:#BCCCDB"/>
			<stop  offset="1" style="stop-color:#D4E6F7"/>
			<stop  offset="1" style="stop-color:#FFFFFF"/>
		</linearGradient>
		<path class="st26" d="M77.7,83c-1.9,3.7-2.2,4.2-3.5,6.1c-0.9,1.3-4.4,12.8-4.4,12.8l-2.7,8.3c0,0-1.5,6.2-0.8,5.9
			c0.8-0.3,1.4-1.4,1.6-2c0.2-0.5,1.6-8.9,1.6-8.9s2.2-9.7,4.2-13.8C75.8,87.4,77.7,83,77.7,83z"/>
		<path class="st27" d="M84.1,99.6L92,94c0,0,5.9-3,6.3-3.4c0.4-0.4,1.8-0.9,1.8-0.1"/>
		<path class="st27" d="M104.8,98.7c0,0,7.1-1.5,8.1-0.9c0.9,0.5,1.3,3.1,1.3,3.1l4,15.6c0,0,0.4,0.9,1.3,0.2c0,0,14.1-14.5,16-18.2
			"/>
		<path class="st28" d="M105,97.5c0,0,1.8-0.5,3.8-0.5c2,0,5.7-1.1,7.2-2c0.2-0.1,0.4-0.9,2.8-1"/>
	</g>
	<g id="Tie">
		<path d="M95.7,92.7l3.9-2.1l0.8,3l1.1,4.1c0.5,1.5,4.4,1,6.4,1.8c0.7,0.3,0.6-0.8,1.6,0.2c0.2,0.2,3.7-1.1,3.7-1.1l0.8,3l-3.5,0.6
			c0,0,0.8-0.1-0.8,0.9s-5.9,4.7-6.4,5.2c-0.5,0.4-2.3,2.5-2.3,2.5s0.7,1.6,0.8,4.2c0.3,6.5-2.6,12.6-2.6,12.6l-1.9,5.1l-0.8,7.2
			c0,0,0.4,0.3,0.2,5.8c-0.3,5.4-0.5,8.2-0.5,8.2l-0.9,8.9l-0.4,8.6l-3,12.9l-4,13.7l-3.9,4.8l-5.1-3.6l2.8-9.1
			c0,0,3.5-7.8,3.8-12.9c0.3-5.1,1.5-11.9,1.6-13c0.1-1.2,0.8-7.7,0.8-7.7l5.1-27.6l3-19.1c0,0,1.1-3.5,1.9-4.4c0.8-0.9,1.3-5,1.3-5
			s0.1,0.3-0.6-0.8C97.7,98.1,95.5,93.5,95.7,92.7z"/>
		<path d="M96.3,109.3l4.7,1.3c0,0,2.8,7.9-3.2,20.1c-5.9,12.2-13.7,13-15.2,21.3c-1.5,8.3,1.2,9.5-2.2,14.4
			c-3.4,4.9-19.8,14.2-19.8,14.2l-17.9-3.7l9.6-19.3c0,0,12-0.7,14.2-3c2.2-2.4,4.2-14.4,10.6-17.1c6.4-2.7,8.8-16.1,8.8-16.1
			s5.9-7.6,6.8-8.1C93.6,112.7,96.3,109.3,96.3,109.3z"/>
		<path class="st11" d="M97,129.9c0,0-2.5,7.1-8.7,11.2c-6.2,4.1-8.5,11.4-7.4,15.2c1.1,3.8-11.7-3.9-11.7-3.9l0.8-3.2l6.3,2.1
			l-5.8-3.1c0,0,1.1-3.7,2.1-4.7c0.9-0.9,1.7-3.4,5-5.2c3.3-1.7,7.1-0.5,10.1-1.9c3-1.4-4.3-0.8-4.3-0.8S91,135.1,97,129.9z"/>
		<path class="st11" d="M60.5,179.4l-16.7-3.5l8.8-17.5c0,0,10.9-1.2,10.3,4.1c-0.2,1.3,3.5,4.1,3.5,4.1l-7.1-2.5l8.7,5.1
			c0,0-11.8,5.1-7.9,6c3.9,0.9,5.8,1.3,5.8,1.3L60.5,179.4z"/>
		<path class="st29" d="M63,177.4c0,0,22.2-9.6,17.7-20.3"/>
		<path class="st11" d="M101.4,98.8c0,0,1,0,2.5,0.4c1.6,0.4,3-0.1,3.5,1.2c0.5,1.4-5,3.5-7.8,8.4c0,0-1.2-0.5-1.6-0.3
			C97.7,108.7,101.4,98.8,101.4,98.8z"/>
		<path class="st30" d="M96.6,113.7c-2.9-0.4-9.7,7.7-9.7,7.7s7.8-8.4,9.2-10.5c1.4-2-0.7,3.3-0.1,2.8c0.6-0.5,1.5-2.8,1.5-2.8
			s8.4-0.6-0.9,19.6C96.6,130.5,103.8,114.8,96.6,113.7z"/>
		
			<rect x="80.3" y="194.7" transform="matrix(0.6236 -0.7817 0.7817 0.6236 -123.1439 139.4157)" class="st31" width="5.7" height="5.8"/>
	</g>
	<g id="Shirt_Button">
		<g>
			<path class="st32" d="M100,95.7c-0.4-0.9-0.1-1.8,0.5-2c0.6-0.3,1.4,0.2,1.8,1.1c0.4,0.9,0.1,1.8-0.5,2
				C101.2,97,100.4,96.6,100,95.7z"/>
			<circle class="st33" cx="100.8" cy="95.2" r="0.1"/>
			<path class="st33" d="M101.6,95.3c0,0.1-0.1,0.2-0.2,0.2c-0.1,0-0.2-0.1-0.2-0.2c0-0.1,0.1-0.2,0.2-0.2
				C101.5,95.1,101.6,95.2,101.6,95.3z"/>
			<path class="st33" d="M101.3,95.7c0,0.1-0.1,0.2-0.1,0.2c-0.1,0-0.1-0.1-0.1-0.2c0-0.1,0.1-0.2,0.1-0.2
				C101.2,95.6,101.3,95.6,101.3,95.7z"/>
			<path class="st33" d="M101.2,94.8c0,0.1-0.1,0.2-0.1,0.2s-0.1-0.1-0.1-0.2c0-0.1,0.1-0.2,0.1-0.2S101.2,94.7,101.2,94.8z"/>
			<path class="st34" d="M100.9,94.2c0,0,1.3,0.4,1,1.9"/>
		</g>
	</g>
	<g id="Hands">
		
			<linearGradient id="SVGID_17_" gradientUnits="userSpaceOnUse" x1="167.6734" y1="248.0064" x2="175.5704" y2="244.3303" gradientTransform="matrix(0.6717 0 0 -0.6717 -89.8226 250.9316)">
			<stop  offset="0" style="stop-color:#FFFFFF"/>
			<stop  offset="1" style="stop-color:#DCD8E8"/>
		</linearGradient>
		<path class="st35" d="M30,80.2c0,0,3.8-1.1,5.3-1c1.6,0.1,1.8,0.7,1.8,0.7l0.1,0.7l-7.1,0.7l-3.8,1.9L24,86.3L23.2,89l1.9,5.7
			l0.7,1.2c0,0,0.9,2.5-1.6,0.2c-2.5-2.3-2.7-7.6-2.7-7.6s0-2.8,1.7-4.3S25.5,81.3,30,80.2z"/>
		
			<radialGradient id="SVGID_18_" cx="353.0038" cy="154.6437" r="25.5407" gradientTransform="matrix(0.6717 0 0 -0.6717 -89.8226 250.9316)" gradientUnits="userSpaceOnUse">
			<stop  offset="0" style="stop-color:#BA7A79"/>
			<stop  offset="5.700000e-02" style="stop-color:#CE8786"/>
			<stop  offset="0.1234" style="stop-color:#DD9190"/>
			<stop  offset="0.2021" style="stop-color:#E59695"/>
			<stop  offset="0.3237" style="stop-color:#E89897"/>
			<stop  offset="1" style="stop-color:#E7BDBF"/>
		</radialGradient>
		<path class="st36" d="M153.9,155.7c0,0-0.6,4.8,0.2,4.8s-5.4-1.5-5.4-1.5s-3.5-0.8-5.7,2.6c-2.1,3.4-0.2,5.4-0.2,5.4
			s-1.8,0.6-2.8,2.8c-0.9,2.2-0.7,3.9,0,4.6c0.2,0.2-2.6,0.8-2.5,2.8c0.2,2,0.8,3.5,1.5,4.9l-1.2,1.7c0,0-0.5,1.7,0.3,3.1
			c0.8,1.4,2.3,3.2,2.3,3.2l3.2,2.1l2.3,1.2c0,0,2,1.8,2.5,1.7c0.5-0.2,7.2,2.5,7.2,2.5s3.9,1.7,6.8-0.1c2.9-1.8,3.4-2.2,5.4-5.5
			c1.9-3.1,3.3-8.7,1.5-13.3l-1.5-5.9l-0.8-4c0,0-0.5-3.1-3.8-4.5c-2.2-0.9-2-5.2-2-5.2s0.2-6.8-4.3-7.5
			C155.3,151.2,153.9,155.7,153.9,155.7z"/>
		<path class="st37" d="M143.5,165.5c0,0,0,2.3,3.2,2.4c3.2,0.1,4.6,1,4.6,1l3.2,0.2l-1.6,0.2l0.9,1l-2.3-1c0,0-7-1.7-7.9-1.7
			c-1,0-3.7,1.3-3.7,3.2c0,1.8,0.5,3,1.3,3.7c0.9,0.6,4.8,1.5,4.8,1.5l2.1,1.1l3.7,0.6l-3.9,0.2c0,0-0.6-1-2.6-1.6
			c-2-0.6-4.4-1.1-4.4-1.1s-2.8-0.5-2.8,3.4c0,1.9,2.1,3.3,2.1,3.3l2.6,1l2,1.3l1.7,0.5l-1.1,0.2l1,1.2c0,0-1.6-2.1-3.3-2.7
			c-1.7-0.6-3.2-0.9-3.2-0.9s-2.4,1.6-0.6,4.4c1.8,2.8,0.4-0.6,0.4-0.6s2,0.6,1.2,1.5c-0.7,0.9,0.2,2.8,0.7,2.8s2.2,1.6,2.8,1.5
			c0.6-0.1,2,1.3,2.3,1c0.4-0.4-0.7-2.1-0.7-2.1s1.6-1.8,3.3-0.4c1.7,1.5,7.8,1.8,6.7-2.8c-1.1-4.6,2.3-1.9,2.3-1.9s0.9-3.4,3.2-5.6
			c0.1-0.1,3.4-1.7,3.5-3.3c0.1-1.6-2.3-3.3-2.3-3.3s2.9,0,3.5-1.8c0.6-1.8,1.5-5.1-1.6-6.5c-3-1.3-13.5-5.7-15.9-5.4
			c-2.3,0.4-3.7,0.7-4.5,2.1C143.3,163.5,143.5,165.5,143.5,165.5z"/>
		<path class="st38" d="M155.6,174.4c0,0,3.4-1.6,4.5-1.1c1.1,0.5,2.6,2.6,2.6,2.6s0.7,2.7-0.9,2.7
			C160.2,178.5,158.9,174.9,155.6,174.4z"/>
		<path class="st38" d="M152.2,180.6c0,0,2.4,0.4,2.6-0.1c0.1-0.5,1.1-2.3,2.3-2.1c1.2,0.2,3.2,1.5,2.1,2.6s-2.9,0.7-2.3,1.6
			c0.6,0.9,0.6,3.3-1.1,2.1C154,183.4,151.8,182.5,152.2,180.6z"/>
		<path class="st38" d="M148.4,187c0,0-0.2,2.2,2,3c2.2,0.9,3.8,0.4,4.3-0.7c0.5-1.1-0.9-2-0.9-2s1.1,0.1,1.1-0.5
			c0-0.6-2.4-2.2-3.8-2C149.8,185.1,148.4,187,148.4,187z"/>
		<path class="st0" d="M160.7,166.6c0,0,4.8,2,4.6,3.1c-0.1,1.1,2.1-2.1-1.2-3.5C160.8,164.7,160.7,166.6,160.7,166.6z"/>
		
			<linearGradient id="SVGID_19_" gradientUnits="userSpaceOnUse" x1="166.6365" y1="238.8011" x2="185.6811" y2="236.2955" gradientTransform="matrix(0.6717 0 0 -0.6717 -89.8226 250.9316)">
			<stop  offset="0" style="stop-color:#BA7A79"/>
			<stop  offset="5.700000e-02" style="stop-color:#CE8786"/>
			<stop  offset="0.1234" style="stop-color:#DD9190"/>
			<stop  offset="0.2021" style="stop-color:#E59695"/>
			<stop  offset="0.3237" style="stop-color:#E89897"/>
			<stop  offset="1" style="stop-color:#E7BDBF"/>
		</linearGradient>
		<path class="st39" d="M30.5,80.4c0,0,5.3,0.1,6.2-0.3c0.9-0.4,4.2-0.7,5.2-0.6c1,0.1,2.7,1.3,2.7,1.3l4.9,1.2c0,0,0.5-0.4,2.7,1.5
			c1.4,1.2,2.9,1.6,2.9,1.6s-2.7,0.7-9.5,0.4c-4.8-0.2-5.4,1.4-5.7,1.9c-0.3,0.5,3.5,1.4,3.5,1.4s-0.3-0.8,2.8,0
			c3.2,0.8,2.1,1.1,2.3,1.5c0.2,0.4,0.9,2.5-1,4.5c-0.1,0.1-0.4,3.6-0.4,3.6s-1.1,1.3-1.5,1.3c-0.4,0,1.2,0.7-2,2.6l-0.5,2.2
			c0,0,0,1.4-2.6,1.3c-2.6-0.1-5.9-0.9-6.5-0.8c-0.6,0.1-3.4,1.1-4.8-1.6c-1.4-2.7-6.1-12.1-6.1-12.1s-1.7-3.7,0.3-6.6
			C25.6,81.9,29.7,80.4,30.5,80.4z"/>
		<path class="st37" d="M34,82c0,0,4.4-2.2,7.3-2.1c2.9,0.1,1.8,2.2,3.6,2.1c1.7-0.1,3.9-0.3,5.2,0.3c1.3,0.6,1.1,1.8,1.5,2.1
			s0.4,1,0.4,1l-6-0.1l-1.9,0.2l-2.6-1.4l1.2,1.4L40,87.3c0,0-3.1-1.7-4.7-1.6c-1.6,0.1-1.4-0.6-0.3-0.8c1.1-0.2-2.2-0.5-2.2-0.5
			L34,82z"/>
		<path class="st37" d="M30.5,87.6c0,0-0.9-4.4,5.5-1.6c6.4,2.7,9.9,3.9,9.9,3.9s2.8,0.6,1.8,3.7c-1,3.1-2,2.4-3.5,2.6
			c-1.4,0.2-7.7-2.5-7.7-2.5l0.8,0.8l-0.9,0.5l1.5-0.1l4.9,1.4c0,0,3.3,0.9,4.1-0.2c0.8-1.1,0.8,2.4-0.5,3.3
			c-1.3,0.8-5.8,0.7-10.3-0.2c-4.5-0.9-6.2,1.4-7.2-2.2c-1-3.7,0.4-3.7,0.6-4.1c0.2-0.4,0.2-2.1,0.2-2.1
			C29.4,89.3,30.5,87.6,30.5,87.6z"/>
		<path class="st37" d="M29,99.6c0,0,1,3,2.4,2.8c1.3-0.2,2.4-0.7,3.1-0.7s-1.6,1.2-1.6,1.2s-2,0.6-3.1-0.8
			c-1.1-1.3-0.6,1.8,0.7,2.1c1.2,0.3,2.7,0.4,3.7,0.1c1-0.3,2.7-1,2.7-1s-0.4-1.3,1.7-1.3s3.9-0.2,4.9,0c1,0.2,2.1-1.6,2.1-1.6
			s0.7-0.2-1.3-0.2s-5.4,0-9.3-0.9C31,98.5,32.1,99.5,29,99.6z"/>
		<path class="st37" d="M34.6,105l2.9-1.5l4-0.2c0,0,2.7-1.5,1.7,0.7c-1,2.1-2,2.4-2.6,2C40,105.7,34.6,105,34.6,105z"/>
		<path class="st0" d="M31.1,89.7c0,0,0.5-1.6,1.3-1.2c0.9,0.3,1.8,1.3,1,1.7C32.7,90.5,31.6,90.3,31.1,89.7z"/>
		<path class="st0" d="M30.3,95.6c0,0-0.2,2.2,1,2.4c1.2,0.1,2-0.2,2.1-0.7C33.6,96.8,30.3,95.6,30.3,95.6z"/>
		<path class="st0" d="M29.3,100.3c0,0,1.3,2.6,2.9,2c1.6-0.6,1.9-1,1.1-1.3c-0.8-0.3-2,0.4-2.4,0.1
			C30.6,100.7,29.3,100.3,29.3,100.3z"/>
		<path class="st0" d="M35.6,104.7c0,0,2-1.2,2.8-1.1c0.8,0.1,0.8,1.2,0,1.2C37.6,104.8,37,105.3,35.6,104.7z"/>
		
			<linearGradient id="SVGID_20_" gradientUnits="userSpaceOnUse" x1="385.4385" y1="115.3074" x2="372.5002" y2="73.4964" gradientTransform="matrix(0.6717 0 0 -0.6717 -89.8226 250.9316)">
			<stop  offset="0" style="stop-color:#FFFFFF"/>
			<stop  offset="0.5604" style="stop-color:#DCD8E8"/>
			<stop  offset="1" style="stop-color:#FFFFFF"/>
		</linearGradient>
		<path class="st40" d="M155,198.5c0,0,3.2,1.1,5,2.7c1.8,1.6,3.5-0.6,4.5-1.1c1-0.6,5.9-6.3,5.9-6.3s0.6-2.1,1-2.4
			c0.5-0.2,1.1-2.8,1.2-5.4c0.1-2.6,0-7.1,0-7.1l-0.7-4.3l-4-1.8c0,0,2.4,5.3,2.5,9.3c0.1,4-0.6,6.9-2.5,9.9
			c-1.9,3.1-4.6,6.4-8.4,6.4c-2.6,0-5.6-1.3-5.6-1.3S152.9,197.4,155,198.5z"/>
	</g>
	<g id="Hair_Behind">
		<path class="st41" d="M161.7,41.5c0,0,3.3-3.8,4.8-7.9c1.5-4.1,1.3-12.2,0.3-13.5c-1-1.3-5.1-5.1-5.1-5.1l-8.3-4.6L151.8,24
			L161.7,41.5z"/>
	</g>
	<g id="Face_Base">
		
			<linearGradient id="SVGID_21_" gradientUnits="userSpaceOnUse" x1="279.3229" y1="302.333" x2="318.5413" y2="287.6262" gradientTransform="matrix(0.6717 0 0 -0.6717 -89.8226 250.9316)">
			<stop  offset="0" style="stop-color:#BA7A79"/>
			<stop  offset="5.700000e-02" style="stop-color:#CE8786"/>
			<stop  offset="0.1234" style="stop-color:#DD9190"/>
			<stop  offset="0.2021" style="stop-color:#E59695"/>
			<stop  offset="0.3237" style="stop-color:#E89897"/>
			<stop  offset="1" style="stop-color:#E7BDBF"/>
		</linearGradient>
		<path class="st42" d="M161.2,24.7c0,0,1.4,1.4,1,7.6c-0.4,6.2-0.7,11.3-0.7,11.3s-0.4,3.5,0.4,4.6c0.7,1.1-3.1,6.8-4.9,8.6
			c-1.2,1-0.4,2.4-0.3,3.3s0.2,3.6-0.5,5.6c-0.7,2-1.1,4.6-1.1,4.6s-1.1,4.8-3.8,9c-2.7,4.2-10.4,12.3-10.4,12.3s-1.3,5.1-5.7,5.3
			c-4.4,0.2-8.6-1.8-11.2-2.2c-2.6-0.4-4.4-0.7-4.4-0.7s-1.6-0.5-3.3,0.5c-1.6,1.1-3.5,2-6.8,2.2c-2.9,0.2-4.5,0.7-4.5,0.7
			s2.1-3.8-2.3-6c-0.4-0.2-1.7-7.9-1.7-7.9s-1.9-4.1,1.4-18.6c0.4-1.9,1-3.5,1-3.5s-1.6-2.5-2.7-8.2c-0.9-4.7-1-8.2,0.4-12
			c0.8-2.1,2.9-4,4.9-2.8c1.9,1.1,3.7,4.3,4.4,6c0.7,1.8,0.6,3.7,0.5,6.2c0,0,4.4,2,4.4,1.1c0-0.9,2.9-9.1,2.9-9.7
			c0-0.5-0.7-0.5,2.6-1.8c3.3-1.3,0.6-6,0.6-6l4-3.3l8-4.8c0,0,3.4,0.6,4.2,0.8c0.7,0.2,4.5,1.3,5.6,1.5c1.1,0.2,6.7,1,9.8,0.7
			C156.1,28.7,160.5,26.3,161.2,24.7z"/>
	</g>
	<g id="Face_Details">
		
			<radialGradient id="SVGID_22_" cx="358.4608" cy="295.819" r="8.1264" gradientTransform="matrix(0.6717 0 0 -0.6717 -89.8226 250.9316)" gradientUnits="userSpaceOnUse">
			<stop  offset="0" style="stop-color:#BA7A79"/>
			<stop  offset="1" style="stop-color:#E89897"/>
		</radialGradient>
		<path class="st43" d="M152.6,52c0,0-4.2,0.3-2.2,7.8l0.6,5.7c0,0,0.2,1.3,0.5,2.2c0.3,0.9,1.8,3.2-1.7,5.4
			c-0.4,0.3-3.9,0.7-4.5,0.1c-0.6-0.6-1.4-2.1-2.5-2.3c-1.1-0.2-0.1-0.5-2.9-0.3c-2.8,0.2-2.1-0.4-2.2-0.4c-0.1,0-1.9-1.7-0.2-3
			c1.7-1.3,2.3-1.6,2.7-1.6c0.4,0,3.9,1.3,4.1,1.8c0.2,0.5,0.4,1.1-0.2,1.1c-0.6,0-2.5-1.1-2.5-1.1s-1.5-0.9-2.5-0.4
			c-1,0.6-1.8,1.6-1.2,2.2c0.6,0.6,1.7,0.8,2.2,0.7c0.5-0.1,1.2,0,1.6,0.1c0.3,0.1,1.4,0.6,1.4,0.6s1.1,0.6,1.3,0.7
			c0.2,0.1,1.1,1.1,1.6,1.3c0.5,0.2,2,0.5,2.8,0c0.9-0.5,2.1-0.2,2.5-1.4c0.4-1.2,0.4-1.7,0.3-1.9c0-0.2-1.6-3.2-1.6-4.1
			s0.3-4.2,0.3-4.2s-0.4-3.1-0.8-3.2c-0.5-0.2-0.1-3.9,0-4c0.1-0.1,0.6-1.6,0.6-1.6s2.3-1.4,3.5-1.5C154.6,50.5,154.1,51.6,152.6,52
			z"/>
		<path class="st44" d="M107.9,44.1c-0.9,0.9,0.7,4,0.7,4.2c0,0.2,0.3,1.8,0.3,1.8s-0.4,2.2,0.1,3c0.4,0.8,0.1,2.2,0.1,2.2l-0.4,0.6
			c-0.5,0.4-0.7-0.6-1.1-0.4s-2-0.7-2.2-1.2c-0.3-0.4-1.4,1.2-1.9,1.5c-0.5,0.4-0.9-0.6-0.9-0.6s0.8-0.6-0.1-1.7
			c-0.9-1.2-0.9-2.2-0.9-2.2s0.6-1.4,0.4-2.5c-0.3-1.1-1-0.1-1-0.1c0-0.3-0.1-4.9,0.9-6.8c0,0,1.4-2.2,3.5-0.5
			C107.5,43.2,107.9,44.1,107.9,44.1z"/>
		<path class="st45" d="M105.6,43.3c0,0-0.2-2.2-0.8-1c-0.6,1.2-0.5,2.9-0.5,2.9s-0.9,1.9-1.2,2.6c-0.3,0.7-0.7,3.7-0.2,4.3
			c0.5,0.6,0.2,2.2,1,1.9c0.8-0.3,1.1-0.5,0.7-1.3c-0.4-0.8-1.7-1-0.9-2.7s2.2-2.8,2.2-2.8s1.6,0.1,1.5-0.7
			C107.4,45.8,106.8,43.2,105.6,43.3z"/>
		
			<linearGradient id="SVGID_23_" gradientUnits="userSpaceOnUse" x1="282.7867" y1="272.1806" x2="308.5583" y2="242.3091" gradientTransform="matrix(0.6717 0 0 -0.6717 -89.8226 250.9316)">
			<stop  offset="0" style="stop-color:#BA7A79"/>
			<stop  offset="5.700000e-02" style="stop-color:#CE8786"/>
			<stop  offset="0.1234" style="stop-color:#DD9190"/>
			<stop  offset="0.2021" style="stop-color:#E59695"/>
			<stop  offset="0.3237" style="stop-color:#E89897"/>
			<stop  offset="1" style="stop-color:#E7BDBF"/>
		</linearGradient>
		<path class="st46" d="M108,62.6c0,0-3.3,1.4-4.6-0.9c-0.1-0.1-1,3.5-1,3.5l-1.6,10.2c0,0-0.1,4.7,0.1,6.3c0.2,1.6,0.9,5.6,0.9,5.6
			s4.6-13.4,6.6-12c2,1.4,4.4,7.3,6.6,9.1c2.1,1.7,7.1,3.2,7.1,3.2s-9.2-7.6-9.9-12.7c-0.7-5.1-2-11.7-2-11.7S109.4,59.2,108,62.6z"
			/>
		<path class="st47" d="M152.1,49.6c-2.2,1.8-5,3.1-4.2,2.4c2.9-2.5,2.5-6.1,2.5-6.1S154.7,47.6,152.1,49.6z"/>
		<path class="st44" d="M150.2,59c0,0-1-3.2-0.5-4.4s1.9-2.7,1.9-2.7l7.8-0.6l0.6,0.1l-3.9,1.3c0,0-0.8,0.5,0.1,0.6
			c0.9,0.1,1.7,0.2,1.7,0.2s0.1,0.3-0.1,0.7c-0.2,0.5,0.4,0.6,0.4,0.6l-0.6,0.8c0,0-2.6-2.5-4-2.4c-1.4,0.1-3,0.6-3.1,1.1
			C150.5,54.8,150.2,59,150.2,59z"/>
		<path class="st48" d="M152.6,52c0,0,4.3-1.9,6.1-2.8c1.6-0.8,1.6-1,1.6-1s1.1-1,1.6,0.6c0.5,1.6,0.8,1.6,0.3,2.3
			c-0.5,0.7-2.2,2-2.2,2l0.2-1.5c0,0,0-0.5-0.8-0.2C158.6,51.7,152.6,52,152.6,52z"/>
		<path class="st47" d="M136.9,36.4c0,0-6.6,0.9-2.3,3c4.3,2.2,9.5,2.9,9.5,2.9s2.9,0.9,2.3,2.2c-0.6,1.3-2.2,2.9-4.3,2.2
			c-2.2-0.8-6.6,2.3,2.8,5.1c3.4,1,4.8-3.4,4.8-3.4s-0.4-1.7,0.3-3c0.6-1.4,2.2-4.3-0.6-5.5C146.6,38.7,136.9,36.4,136.9,36.4z"/>
		<g>
			<path class="st48" d="M125.4,49.9c0,0,3.9-3.2,8.6-4.4c1.9-0.5,2.8,0.3,3.2,0.3s3.7,1.4,3.7,1.4s4.7,1.5,4.7,1.5
				c-0.8,2.1,2.3-0.6,1.9-0.1c-0.5,0.6-1.4,3.4-2.6,3.1c-1.2-0.3-5.9-3.2-8.3-3.4c0,0-1.3-0.8-4.1-0.1S125.4,49.9,125.4,49.9z"/>
			<path class="st45" d="M141.4,53c0,0-0.1-1.2,0.2-1c0.3,0.2,0.7,0.8,1.3,0.5c0.5-0.3,1.1-1.1,1.1-1.1l-2.4-1c0,0-3,0.4-3.6,0.1
				c-0.6-0.3-3.1-0.4-4-0.1c-0.9,0.3-2.9,1.1-2.9,1.1s-1.9,0.5-1.8,1.1c0,0.5,0.9,1,0.9,1l1.7,1l1.5,0.5l0.3-0.6l0.3-3
				c0,0,0.1-0.7,0.9-0.8c0.8-0.1,1.5-0.1,2,0.3s0.2,0.7,0.2,0.7L141.4,53z"/>
			<g>
				<defs>
					<path id="SVGID_24_" d="M132.3,52.5c0,0,6.3-2.3,8-0.1c1.4,1.8,0.3,1.5,0.3,1.5s-0.4,0.8-2,0.8c-1.6,0-4.5-0.2-5.2-0.8
						C132.8,53.3,132.3,52.5,132.3,52.5z"/>
				</defs>
				<clipPath id="SVGID_25_">
					<use xlink:href="#SVGID_24_"  style="overflow:visible;"/>
				</clipPath>
				
					<radialGradient id="SVGID_26_" cx="337.0174" cy="294.5119" r="5.194" gradientTransform="matrix(0.6717 0 0 -0.6717 -89.8226 250.9316)" gradientUnits="userSpaceOnUse">
					<stop  offset="0" style="stop-color:#FFFFFF"/>
					<stop  offset="1" style="stop-color:#DCD8E8"/>
				</radialGradient>
				<path class="st49" d="M132.3,52.5c0,0,6.3-2.3,8-0.1c1.4,1.8,0.3,1.5,0.3,1.5s-0.4,0.8-2,0.8c-1.6,0-4.5-0.2-5.2-0.8
					C132.8,53.3,132.3,52.5,132.3,52.5z"/>
				<path class="st50" d="M136.4,52.3c0.5-0.9,1.6-1.3,2.3-0.8c0.8,0.4,0.9,1.5,0.4,2.4s-1.6,1.3-2.3,0.8
					C136.1,54.3,135.9,53.2,136.4,52.3z"/>
				<path class="st51" d="M137.1,52.9c0.1-0.3,0.1-0.5-0.1-0.6c-0.1-0.1-0.3,0.1-0.4,0.4c-0.1,0.3-0.1,0.5,0.1,0.6
					C136.8,53.3,137,53.1,137.1,52.9z"/>
				<use xlink:href="#SVGID_24_"  style="overflow:visible;fill:none;stroke:#E89897;stroke-width:0.25;stroke-miterlimit:10;"/>
			</g>
			<path class="st52" d="M132.2,52.5c0,0,3.2-1.1,4.4-1.1s1.6-0.1,2.8,0.3c1.2,0.5,0.9,1.1,1.8,1"/>
		</g>
		
			<radialGradient id="SVGID_27_" cx="359.0946" cy="292.2785" r="7.4531" gradientTransform="matrix(0.6717 0 0 -0.6717 -89.8226 250.9316)" gradientUnits="userSpaceOnUse">
			<stop  offset="0" style="stop-color:#FFFFFF"/>
			<stop  offset="3.560000e-02" style="stop-color:#FDFCFD"/>
			<stop  offset="0.3584" style="stop-color:#EAE8F2"/>
			<stop  offset="0.6807" style="stop-color:#E0DCEA"/>
			<stop  offset="1" style="stop-color:#DCD8E8"/>
		</radialGradient>
		<path class="st53" d="M150.3,54.5c0,0,0.6-1.4,2.3-1.7c1.8-0.2,3,0.9,3,0.9s1,0.6,0.7,1.2c0,0-0.4,0.7-1,1
			c-0.6,0.2-2.4,0.6-3.5,0.1c-1-0.5-1.6-0.9-1.6-0.9S150,54.9,150.3,54.5z"/>
		<path d="M155.3,55.2c0.3-0.9,0-1.8-0.7-2.1c-0.7-0.3-1.6,0.2-1.9,1.1c-0.3,0.9,0,1.8,0.7,2.1C154.1,56.5,154.9,56,155.3,55.2z"/>
		<path class="st0" d="M153.3,54.5c0.1-0.3,0.1-0.6,0-0.6c-0.1,0-0.3,0.2-0.4,0.5c-0.1,0.3-0.1,0.6,0,0.6
			C153,55,153.2,54.8,153.3,54.5z"/>
		<path class="st52" d="M150.4,54.1c0,0,1.1-1.3,2.5-1.3c1.4,0,2.4,0.5,2.9,1c0.5,0.4,0.6,1,1,1"/>
		
			<radialGradient id="SVGID_28_" cx="354.163" cy="269.6423" r="2.0544" gradientTransform="matrix(0.6717 0 0 -0.6717 -89.8226 250.9316)" gradientUnits="userSpaceOnUse">
			<stop  offset="0" style="stop-color:#FFFFFF"/>
			<stop  offset="0.2111" style="stop-color:#F7E9EA"/>
			<stop  offset="0.5041" style="stop-color:#EED1D2"/>
			<stop  offset="0.7748" style="stop-color:#E9C2C4"/>
			<stop  offset="1" style="stop-color:#E7BDBF"/>
		</radialGradient>
		<circle class="st54" cx="148" cy="69.8" r="1.4"/>
		<path class="st55" d="M144.3,79.9c0,0-0.3,0.5-0.3,0.5c0,0.8-0.8,2.7-1.7,2.8c-0.9,0.1-2.9,0.8-5.5-1.3c-2.6-2-6.7-4.7-7.4-5.6
			c-0.7-0.8,4,0.4,6.3,0.5c2.2,0.1,6.4,1.1,7.6,1.4c1.2,0.3,6.1-0.6,2.2,1.3C144.5,79.9,144.3,79.9,144.3,79.9z"/>
		<path class="st55" d="M129.5,76.3c6,0.6,10.4,4.7,14.8,3.7"/>
	</g>
	<g id="Hair_Front">
		<path class="st41" d="M161.7,22.1c0,0,1.2,5.5-7.3,6.8c-8.5,1.3-17.1-2.4-17.1-2.4s-3.3,0-4-0.1c-0.6-0.1-2.2,1.7-3.6,2.5
			c-0.5,0.3-8.1,4.8-8.1,4.8s1.8,5.8-0.1,6.4c-1.9,0.5-3.1,1.2-3.1,1.2L115,52.6l-4.2-1.6l-0.5-6.8c0,0-3.7-7.1-6.6-5.9
			c-2.9,1.2-3.4,4.8-3.8,5.7c-0.3,0.9,1.6-13.7,3.1-23.4c1.4-8.9,8.6-16.3,13.5-17.5c4.9-1.2,13.1-2.9,19.1-2.1
			c6,0.8,19.1,6.4,21.2,9.5C159,13.7,161.7,22.1,161.7,22.1z"/>
		<line class="st56" x1="110.7" y1="51.7" x2="114.9" y2="53.2"/>
		<line class="st56" x1="110.8" y1="52.6" x2="114.6" y2="54"/>
	</g>
	<g id="Glasses" class="st57">
		<line class="st58" x1="114.8" y1="43.3" x2="126.1" y2="52.4"/>
		<path class="st59" d="M125.7,52.1c0,0,0.2-0.5,0.8-0.3c0.6,0.2,1.7,1.3,1.7,1.3s0.8,0.7,1.3,0.6c0.4-0.1,1.3,0.4,1.3,0.4
			s2.5,1,2.9,0.8c0,0,1.9-1.4,3.3-1.7c1.4-0.3,5-0.4,6.6,0.4c1.6,0.8,2.9,1.7,3.1,2.5c0.1,0.5,0.5,0.3,0.5,0.3s1-0.3,1.7-0.2
			c0.7,0.1,2.3,0.6,2.3,0.6s0.8,0.2,1.6-0.3c0.8-0.5,2.7-1.7,4-1.6c5.4,0.2,2.9-1.7,3.2-1.6c0.3,0,1.2,1.9,2.9,3c0,0,0.5,0.4,1,0.5
			c0.5,0.1,1.3,1,1.3,1s0.6,0.3,0.6,0.6s-0.4,0.6-0.4,0.6l-1.1,0.2c0,0-0.4,0-1.1,1.3c-0.5,1-1.8,2.6-3.7,3.1
			c-2.4,0.7-3.5,0.6-4.8,0.6c-1.3,0-3.5-0.9-4-2.1c-0.4-1.2-0.1-3.3-0.1-3.3s0.9-1,0-1.3c-0.8-0.3-0.7-0.3-1.6-0.4
			c-0.9,0-1.4,0-1.8,0.2c-0.3,0.1-1.2,2.1-1.4,2.4c-0.1,0.1-0.8,1.5-3.6,2.3c-2.8,0.8-4,0.5-4,0.5s-3.1-0.3-4.7-1.5
			c-1.6-1.2-1.4-3.9-1.2-4.2c0.2-0.3-2.4-0.9-2.4-0.9s-0.4,0.5-1.8-0.6c-1.4-1.1-2.5-2.2-2.5-2.2S125.3,52.7,125.7,52.1z"/>
		<path class="st60" d="M163.3,58.4c-0.2-0.7-0.6-2.4-3.2-2.8c-2.6-0.5-5.4,1-5.4,1s-2,0.6-3.4,3.1c-1.1,1.9,0.7,3.2,1,3.4
			s1.1,0.7,3.5,0.7c2.4,0,3.7-0.5,3.7-0.5s0.9-0.3,2.1-1.2C163.1,61,163.6,59,163.3,58.4z"/>
		<path class="st60" d="M133.1,57.5c0,0,0.4-2.1,2.9-3.3c2.5-1.2,5.5-0.7,5.5-0.7s3,0.6,4,1.8c1,1.2,1.2,2.2,1,2.8
			c-0.9,2.3-1.7,2.6-1.8,2.6c-0.7,0.4-1.7,1.3-3.9,1.4c-2.3,0-3.2,0.1-4.4-0.3c-1.2-0.4-2.9-1.2-3.1-2.6
			C132.9,57.8,133.1,57.5,133.1,57.5z"/>
		<path class="st61" d="M142.9,54.3c0,0,3.3,4,0,5.8c-1.6,0.9-0.8-0.2-4.2,1.3c0,0,2,0.7,3.9,0c1.9-0.7,3.4-2.4,3.4-3.6
			s-0.6-2.2-1.5-2.7C143.9,54.7,142.9,54.3,142.9,54.3z"/>
		<path class="st61" d="M137.7,54.5c0,0-3.8,1.5-3.6,4.2c0.2,2.7,1,1.9,1,1.9S133.1,57,137.7,54.5z"/>
		<path class="st61" d="M160.3,56.2c0,0,2.5,0.6,2.5,2.5c0,1.9-2.2,3.4-2.2,3.4l-2.9,1.1l3.1-2.4c0,0,1.2-1.3,0.2-2.6
			s-2.1-2.1-2.1-2.1L160.3,56.2z"/>
		<path class="st62" d="M152.5,58.9c0,0-1.9,1.7,0.2,3.8"/>
		<path class="st63" d="M126.3,51.8c0,0-1,0-0.5,1.1"/>
	</g>
</g>
<g>
	<path class="st4" d="M44.1,114.1l0.1,0l-0.3,0.4c-0.1,0.2-0.3,0.2-0.4,0.1c0,0-0.1,0-0.1-0.1l0.1-0.1c0,0,0,0,0.1,0.1
		c0.1,0,0.2,0,0.3-0.1L44.1,114.1z"/>
	<path class="st4" d="M44.2,114.7l-0.2,0.1l-0.1,0l0.7-0.5l0.1,0.1l-0.1,0.7l-0.1-0.1l0-0.2L44.2,114.7z M44.5,114.7l0-0.2
		c0,0,0-0.1,0-0.1l0,0c0,0-0.1,0.1-0.1,0.1l-0.2,0.1L44.5,114.7z"/>
	<path class="st4" d="M45.1,114.5l0.1,0l-0.2,0.3l0,0c0,0,0.1,0,0.1,0l0.4-0.1l0.1,0.1l-0.5,0.1l0.1,0.5l-0.1-0.1l-0.1-0.4l-0.1,0
		l-0.2,0.2l-0.1,0L45.1,114.5z"/>
	<path class="st4" d="M46,115.3l-0.3-0.1l-0.2,0.2l0.4,0.2l0,0.1l-0.5-0.2l0.4-0.6l0.5,0.2l0,0.1l-0.3-0.2l-0.1,0.2L46,115.3
		L46,115.3z"/>
	<path class="st4" d="M46.7,115.3l-0.3-0.1l0-0.1l0.6,0.3l0,0.1l-0.3-0.1l-0.4,0.5l-0.1,0L46.7,115.3z"/>
	<path class="st4" d="M47.3,115.5l-0.2,0.2l0.4,0.2l0.2-0.2l0.1,0l-0.4,0.6l-0.1,0l0.2-0.3l-0.4-0.2l-0.2,0.3l-0.1,0l0.4-0.6
		L47.3,115.5z"/>
	<path class="st4" d="M48.5,116.4c-0.1,0.2-0.4,0.2-0.6,0.1c-0.2-0.1-0.3-0.3-0.2-0.5c0.1-0.2,0.4-0.2,0.6-0.1
		C48.6,116,48.7,116.2,48.5,116.4z M47.9,116.1c-0.1,0.1-0.1,0.3,0.1,0.4c0.2,0.1,0.4,0,0.4-0.1c0.1-0.1,0.1-0.3-0.1-0.4
		C48.1,115.9,48,116,47.9,116.1z"/>
	<path class="st4" d="M49.4,116.8c0.1-0.1,0.1-0.2,0.2-0.3h0C49.4,116.6,49.4,116.7,49.4,116.8l-0.5,0.1l-0.1,0l0.1-0.3
		c0-0.1,0-0.2,0.1-0.3l0,0c-0.1,0.1-0.1,0.2-0.2,0.2l-0.2,0.2l-0.1,0l0.5-0.6l0.1,0.1l-0.1,0.3c0,0.1,0,0.2-0.1,0.2h0
		c0.1,0,0.1-0.1,0.2-0.2l0.4-0.2l0.1,0.1l-0.4,0.6l-0.1,0L49.4,116.8z"/>
	<path class="st4" d="M49.7,117.1l-0.2,0.1l-0.1,0l0.7-0.5l0.1,0.1l-0.1,0.7l-0.1-0.1l0-0.2L49.7,117.1z M50,117.1l0-0.2
		c0,0,0-0.1,0-0.1h0c0,0-0.1,0.1-0.1,0.1l-0.2,0.1L50,117.1z"/>
	<path class="st4" d="M50.3,117.4c0,0,0.1,0.1,0.2,0.1c0.1,0,0.2,0,0.2,0c0-0.1,0-0.1-0.1-0.2c-0.1-0.1-0.2-0.2-0.1-0.3
		c0.1-0.1,0.2-0.1,0.4,0c0.1,0,0.1,0.1,0.2,0.1l-0.1,0c0,0-0.1-0.1-0.1-0.1c-0.1-0.1-0.2,0-0.2,0c0,0.1,0,0.1,0.1,0.2
		c0.1,0.1,0.2,0.2,0.1,0.3c-0.1,0.1-0.2,0.1-0.4,0C50.3,117.6,50.2,117.5,50.3,117.4L50.3,117.4z"/>
	<path class="st4" d="M43.3,115.8c0,0-0.1,0-0.2-0.1c-0.2-0.1-0.3-0.3-0.2-0.5c0.1-0.2,0.4-0.2,0.7-0.1c0.1,0,0.2,0.1,0.2,0.1
		l-0.1,0.1c0,0-0.1-0.1-0.2-0.1c-0.2-0.1-0.4-0.1-0.5,0.1c-0.1,0.1-0.1,0.3,0.1,0.4C43.2,115.8,43.3,115.8,43.3,115.8L43.3,115.8z"
		/>
	<path class="st4" d="M43.8,115.4c0.1,0,0.1,0,0.2,0.1c0.1,0.1,0.2,0.1,0.2,0.2c0,0,0,0.1,0,0.1c-0.1,0.1-0.2,0.1-0.3,0.1l0,0
		c0.1,0,0.1,0.1,0,0.2c0,0.1-0.1,0.2-0.1,0.2l-0.1,0c0,0,0-0.1,0-0.2c0-0.1,0-0.1-0.1-0.2l-0.1,0l-0.2,0.3l-0.1,0L43.8,115.4z
		 M43.7,115.7l0.1,0c0.1,0.1,0.2,0,0.3,0c0.1-0.1,0-0.1-0.1-0.2c-0.1,0-0.1,0-0.1,0L43.7,115.7z"/>
	<path class="st4" d="M44.7,116.1l-0.3-0.1l-0.2,0.2l0.4,0.2l0,0.1l-0.5-0.2l0.4-0.6l0.5,0.2l0,0.1l-0.3-0.2l-0.1,0.2L44.7,116.1
		L44.7,116.1z"/>
	<path class="st4" d="M45,116.4l-0.2,0.1l-0.1,0l0.7-0.5l0.1,0.1l-0.1,0.7l-0.1-0.1l0-0.2L45,116.4z M45.3,116.4l0-0.2
		c0,0,0-0.1,0-0.1l0,0c0,0-0.1,0.1-0.1,0.1l-0.2,0.1L45.3,116.4z"/>
	<path class="st4" d="M45.9,116.3l-0.3-0.1l0-0.1l0.6,0.3l0,0.1l-0.3-0.1l-0.4,0.5l-0.1,0L45.9,116.3z"/>
	<path class="st4" d="M46.5,116.5l-0.4,0.6l-0.1,0l0.4-0.6L46.5,116.5z"/>
	<path class="st4" d="M46.5,117.2l0.2-0.7l0.1,0.1l-0.1,0.3c0,0.1,0,0.2-0.1,0.3l0,0c0.1-0.1,0.2-0.1,0.3-0.2l0.4-0.2l0.1,0.1
		l-0.7,0.4L46.5,117.2z"/>
	<path class="st4" d="M47.6,117.4l-0.3-0.1l-0.2,0.2l0.4,0.2l0,0.1l-0.5-0.2l0.4-0.6l0.5,0.2l0,0.1l-0.3-0.2l-0.1,0.2L47.6,117.4
		L47.6,117.4z"/>
	<path class="st4" d="M47.8,117.8L47.8,117.8l0.2-0.1c0.3,0,0.5-0.1,0.5-0.2c0-0.1,0-0.1-0.1-0.2c-0.1,0-0.2,0-0.2,0l0-0.1
		c0.1,0,0.2,0,0.3,0c0.2,0.1,0.2,0.2,0.1,0.3c-0.1,0.1-0.2,0.1-0.5,0.2l-0.1,0l0,0l0.4,0.2l0,0.1L47.8,117.8z"/>
	<path class="st4" d="M49.2,118.1c-0.1,0.2-0.3,0.2-0.5,0.2c-0.2-0.1-0.2-0.2-0.1-0.4c0.1-0.2,0.3-0.2,0.5-0.2
		C49.3,117.7,49.3,117.9,49.2,118.1z M48.7,117.9c-0.1,0.1-0.1,0.3,0,0.3c0.1,0,0.2,0,0.3-0.2c0.1-0.1,0.1-0.2,0-0.3
		C49,117.7,48.9,117.7,48.7,117.9z"/>
	<path class="st4" d="M49.7,118L49.7,118l-0.2,0l0-0.1L49.7,118l0.2,0l-0.4,0.6l-0.1,0L49.7,118z"/>
	<path class="st4" d="M50.6,118.4C50.5,118.3,50.5,118.3,50.6,118.4c-0.3-0.1-0.4,0-0.5,0l0,0c0.1,0,0.2,0,0.2,0
		c0.1,0.1,0.2,0.2,0.1,0.3c-0.1,0.1-0.2,0.2-0.4,0.1c-0.2-0.1-0.2-0.2-0.1-0.4c0.1-0.1,0.2-0.2,0.3-0.2
		C50.3,118.2,50.4,118.2,50.6,118.4C50.6,118.3,50.6,118.3,50.6,118.4L50.6,118.4z M50.3,118.7c0.1-0.1,0-0.2-0.1-0.2
		c-0.1,0-0.1,0-0.2,0c0,0,0,0,0,0c-0.1,0.1-0.1,0.2,0.1,0.2C50.1,118.8,50.2,118.7,50.3,118.7z"/>
</g>
</svg>
